<svg width="40" height="41" viewBox="0 0 40 41" fill="none" xmlns="http://www.w3.org/2000/svg">
<path d="M6.66667 10.1744V20.1744C6.66667 20.1744 6.66667 25.1744 18.3333 25.1744C30 25.1744 30 20.1744 30 20.1744V10.1744" stroke="white" stroke-width="2" stroke-linecap="round" stroke-linejoin="round"/>
<path d="M18.3333 35.1744C6.66667 35.1744 6.66667 30.1744 6.66667 30.1744V20.1744M18.3333 5.17444C30 5.17444 30 10.1744 30 10.1744C30 10.1744 30 15.1744 18.3333 15.1744C6.66667 15.1744 6.66667 10.1744 6.66667 10.1744C6.66667 10.1744 6.66667 5.17444 18.3333 5.17444Z" stroke="white" stroke-width="2" stroke-linecap="round" stroke-linejoin="round"/>
<path d="M24.0013 32.1772L29.0017 32.1784M29.0017 32.1784L34.0021 32.1772M29.0017 32.1784L29.0017 27.1744M29.0017 32.176L29.0017 37.1753" stroke="white" stroke-width="2.5" stroke-linecap="round" stroke-linejoin="round"/>
</svg>
