<svg width="108" height="111" viewBox="0 0 108 111" fill="none" xmlns="http://www.w3.org/2000/svg">
<path d="M59.0922 33.7838C54.975 37.1041 52.4516 43.7448 48.7328 61.0104C47.1391 68.3151 45.1469 75.8854 44.2172 77.7448C43.1547 79.6041 38.5063 83.4557 33.725 86.2448C24.2953 91.6901 21.892 94.2135 22.9545 95.1432C23.2201 95.5416 26.879 92.2443 31.6445 90.2821C35.4961 87.3602 33.4594 88.6354 36.6469 87.0416C43.8188 83.4557 47.0063 78.276 49.6625 65.6588C52.9828 49.4557 56.5688 38.4323 59.0922 36.1744C62.8109 32.9869 67.3266 32.0573 71.4438 33.7838C76.7563 36.0416 77.4203 39.2291 73.8344 44.8073C70.3813 50.2526 64.8031 51.3151 60.5531 47.4635C59.225 46.2682 58.1625 46.0026 58.1625 46.7994C58.1625 47.5963 59.6234 49.3229 61.4828 50.651C64.8031 53.0416 64.9359 53.1744 62.6781 57.5573C60.9516 61.1432 60.6859 64.0651 61.35 72.8307C63.8734 104.706 63.0766 106.738 64.2719 103.551C64.9359 101.559 65.3344 92.4869 63.8734 81.9948C61.7484 66.0573 61.7484 65.526 64.2719 59.4166C67.725 51.1823 71.0453 49.4557 83.1313 49.9869C94.5531 50.5182 96.0141 48.3932 86.85 44.4088C83.5297 43.0807 79.8109 40.2916 78.6156 38.1666C77.2875 36.1744 75.4281 33.651 74.2328 32.7213C71.1781 30.1979 62.9438 30.7291 59.0922 33.7838ZM84.725 45.7369C87.1157 47.3307 84.9906 47.3307 81.4047 45.7369C79.6781 44.9401 79.4125 44.5416 80.7406 44.5416C81.8031 44.5416 83.6625 45.0729 84.725 45.7369ZM78.4828 47.9948C77.5531 48.2604 75.9594 48.2604 75.1625 47.9948C74.2328 47.5963 74.8969 47.3307 76.7563 47.3307C78.6156 47.3307 79.2797 47.5963 78.4828 47.9948Z" fill="white"/>
<path d="M66.9281 37.5026C66.6625 38.0338 66.7953 39.362 67.4594 40.4245C68.3891 41.8854 69.0531 42.0182 70.2484 40.8229C71.0453 40.026 71.3109 38.6979 70.9125 37.901C69.85 36.1745 67.8578 36.0416 66.9281 37.5026Z" fill="white"/>
<path d="M51.1235 67.2526C49.7953 72.8307 47.2719 79.6041 45.4125 82.2604C41.8266 87.5729 43.9516 88.1041 47.8032 82.7916C50.5922 78.9401 54.5766 64.1979 53.9125 59.9479C53.6469 58.3541 52.4516 61.4088 51.1235 67.2526Z" fill="white"/>
<path d="M32.5297 97.2682C25.6235 104.307 38.4815 95.092 33.5922 98.9948C39.8344 93.2838 42.7563 92.3541 46.8734 95.276C48.7328 96.7369 49.1313 98.0651 48.3344 101.651C47.6703 104.971 47.8031 105.768 48.9984 104.573C51.3891 102.182 50.8578 95.9401 48.0688 93.9479C43.5531 90.6276 37.8422 91.8229 32.5297 97.2682Z" fill="white"/>
<circle cx="54" cy="53.2106" r="52.2106" stroke="white" stroke-width="2"/>
</svg>
