<svg width="70" height="71" viewBox="0 0 70 71" fill="none" xmlns="http://www.w3.org/2000/svg">
<circle cx="35" cy="35.1744" r="34.5" stroke="white"/>
<path d="M21.6667 25.1744V35.1744C21.6667 35.1744 21.6667 40.1744 33.3333 40.1744C45 40.1744 45 35.1744 45 35.1744V25.1744" stroke="white" stroke-width="2" stroke-linecap="round" stroke-linejoin="round"/>
<path d="M33.3333 50.1744C21.6667 50.1744 21.6667 45.1744 21.6667 45.1744V35.1744M33.3333 20.1744C45 20.1744 45 25.1744 45 25.1744C45 25.1744 45 30.1744 33.3333 30.1744C21.6667 30.1744 21.6667 25.1744 21.6667 25.1744C21.6667 25.1744 21.6667 20.1744 33.3333 20.1744Z" stroke="white" stroke-width="2" stroke-linecap="round" stroke-linejoin="round"/>
<path d="M39.0013 47.1772L44.0017 47.1784M44.0017 47.1784L49.0021 47.1772M44.0017 47.1784L44.0017 42.1744M44.0017 47.176L44.0017 52.1753" stroke="white" stroke-width="2.5" stroke-linecap="round" stroke-linejoin="round"/>
</svg>
