<svg width="70" height="71" viewBox="0 0 70 71" fill="none" xmlns="http://www.w3.org/2000/svg">
<circle cx="35" cy="35.5181" r="34.5" stroke="#FF1717"/>
<path d="M20 24.6848V34.6848C20 34.6848 20 39.6848 31.6667 39.6848C43.3333 39.6848 43.3333 34.6848 43.3333 34.6848V24.6848" stroke="#FF1717" stroke-width="2" stroke-linecap="round" stroke-linejoin="round"/>
<path d="M31.6667 49.6848C20 49.6848 20 44.6848 20 44.6848V34.6848M31.6667 19.6848C43.3333 19.6848 43.3333 24.6848 43.3333 24.6848C43.3333 24.6848 43.3333 29.6848 31.6667 29.6848C20 29.6848 20 24.6848 20 24.6848C20 24.6848 20 19.6848 31.6667 19.6848Z" stroke="#FF1717" stroke-width="2" stroke-linecap="round" stroke-linejoin="round"/>
<path d="M39.7966 42.7839L43.3316 46.3206M43.3316 46.3206L46.8683 49.8556M43.3316 46.3206L46.8699 42.7822M43.3333 46.3189L39.7983 49.8539" stroke="#FF1717" stroke-width="2.5" stroke-linecap="round" stroke-linejoin="round"/>
</svg>
