<svg width="31" height="32" viewBox="0 0 31 32" fill="none" xmlns="http://www.w3.org/2000/svg">
<path d="M17.4003 9.63061C16.2397 10.5666 15.5283 12.4386 14.48 17.3057C14.0307 19.3649 13.4692 21.499 13.2071 22.0231C12.9076 22.5473 11.5972 23.633 10.2493 24.4193C7.59112 25.9543 6.91363 26.6657 7.21314 26.9277C7.28802 27.0401 8.31946 26.1106 9.66285 25.5574C10.7486 24.7337 10.1745 25.0932 11.073 24.6439C13.0948 23.633 13.9933 22.1729 14.7421 18.6161C15.6781 14.0485 16.689 10.941 17.4003 10.3045C18.4486 9.40597 19.7216 9.14389 20.8822 9.63061C22.3798 10.2671 22.567 11.1656 21.5561 12.7381C20.5827 14.2731 19.0102 14.5726 17.8121 13.4869C17.4378 13.1499 17.1382 13.0751 17.1382 13.2997C17.1382 13.5243 17.5501 14.011 18.0742 14.3854C19.0102 15.0594 19.0477 15.0968 18.4112 16.3323C17.9245 17.3432 17.8496 18.1669 18.0368 20.6379C18.7481 29.6234 18.5235 30.1964 18.8605 29.2978C19.0477 28.7362 19.16 26.1789 18.7481 23.2212C18.1491 18.7284 18.1491 18.5787 18.8605 16.8565C19.8339 14.5352 20.7699 14.0485 24.1769 14.1982C27.3967 14.348 27.8086 13.749 25.2252 12.6258C24.2892 12.2514 23.2409 11.4652 22.9039 10.8661C22.5295 10.3045 22.0054 9.59317 21.6684 9.33109C20.8073 8.61973 18.4861 8.76949 17.4003 9.63061ZM24.6262 13.0002C25.3001 13.4495 24.7011 13.4495 23.6902 13.0002C23.2035 12.7755 23.1286 12.6632 23.503 12.6632C23.8025 12.6632 24.3267 12.813 24.6262 13.0002ZM22.8665 13.6367C22.6044 13.7115 22.1552 13.7115 21.9305 13.6367C21.6684 13.5243 21.8556 13.4495 22.3798 13.4495C22.9039 13.4495 23.0911 13.5243 22.8665 13.6367Z" fill="#1E1E1E"/>
<path d="M19.6092 10.6788C19.5344 10.8286 19.5718 11.203 19.759 11.5025C20.0211 11.9144 20.2083 11.9518 20.5452 11.6148C20.7699 11.3902 20.8448 11.0158 20.7324 10.7912C20.4329 10.3044 19.8713 10.267 19.6092 10.6788Z" fill="#1E1E1E"/>
<path d="M15.1539 19.0654C14.7795 20.6379 14.0682 22.5473 13.544 23.2961C12.5332 24.7937 13.1322 24.9434 14.218 23.4458C15.0042 22.3601 16.1274 18.2043 15.9402 17.0062C15.8653 16.5569 15.5283 17.418 15.1539 19.0654Z" fill="#1E1E1E"/>
<path d="M9.91238 27.5268C7.96551 29.5111 11.5902 26.9133 10.2119 28.0135C11.9716 26.4036 12.7952 26.1415 13.9559 26.9652C14.48 27.377 14.5923 27.7514 14.3677 28.7623C14.1805 29.6983 14.2179 29.9229 14.5549 29.586C15.2288 28.912 15.079 27.1524 14.2928 26.5908C13.0199 25.6548 11.41 25.9917 9.91238 27.5268Z" fill="#1E1E1E"/>
<circle cx="15.9648" cy="15.1069" r="14.5" stroke="#1E1E1E"/>
</svg>
