<svg width="70" height="71" viewBox="0 0 70 71" fill="none" xmlns="http://www.w3.org/2000/svg">
<circle cx="35" cy="35.1744" r="34.5" stroke="white"/>
<path d="M20 24.3411V34.3411C20 34.3411 20 39.3411 31.6667 39.3411C43.3333 39.3411 43.3333 34.3411 43.3333 34.3411V24.3411" stroke="white" stroke-width="2" stroke-linecap="round" stroke-linejoin="round"/>
<path d="M31.6667 49.3411C20 49.3411 20 44.3411 20 44.3411V34.3411M45 51.0077V41.0077M45 41.0077L50 46.0077M45 41.0077L40 46.0077M31.6667 19.3411C43.3333 19.3411 43.3333 24.3411 43.3333 24.3411C43.3333 24.3411 43.3333 29.3411 31.6667 29.3411C20 29.3411 20 24.3411 20 24.3411C20 24.3411 20 19.3411 31.6667 19.3411Z" stroke="white" stroke-width="2" stroke-linecap="round" stroke-linejoin="round"/>
</svg>
